<svg xmlns="http://www.w3.org/2000/svg" width="29" height="29" aria-label="clap"><g fill-rule="evenodd"><path d="M13.74 1l.76 2.97.76-2.97zM18.63 2.22l-1.43-.47-.4 3.03zM11.79 1.75l-1.43.47 1.84 2.56zM24.47 14.3L21.45 9c-.29-.43-.69-.7-1.12-.78a1.16 1.16 0 0 0-.91.22c-.3.23-.48.52-.54.84l.05.07 2.85 5c1.95 3.56 1.32 6.97-1.85 10.14a8.46 8.46 0 0 1-.55.5 5.75 5.75 0 0 0 3.36-1.76c3.26-3.27 3.04-6.75 1.73-8.91M14.58 10.89c-.16-.83.1-1.57.7-2.15l-2.5-2.49c-.5-.5-1.38-.5-1.88 0-.18.18-.27.4-.33.63l4.01 4z"></path><path d="M17.81 10.04a1.37 1.37 0 0 0-.88-.6.81.81 0 0 0-.64.15c-.18.13-.71.55-.24 1.56l1.43 3.03a.54.54 0 1 1-.87.61L9.2 7.38a.99.99 0 1 0-1.4 1.4l4.4 4.4a.54.54 0 1 1-.76.76l-4.4-4.4L5.8 8.3a.99.99 0 0 0-1.4 0 .98.98 0 0 0 0 1.39l1.25 1.24 4.4 4.4a.54.54 0 0 1 0 .76.54.54 0 0 1-.76 0l-4.4-4.4a1 1 0 0 0-1.4 0 .98.98 0 0 0 0 1.4l1.86 1.85 2.76 2.77a.54.54 0 0 1-.76.76L4.58 15.7a.98.98 0 0 0-1.4 0 .99.99 0 0 0 0 1.4l5.33 5.32c3.37 3.37 6.64 4.98 10.49 1.12 2.74-2.74 3.27-5.54 1.62-8.56l-2.8-4.94z"></path></g></svg>