<svg xmlns="http://www.w3.org/2000/svg" width="25" height="25" aria-label="responses"><path d="M19.07 21.12a6.33 6.33 0 0 1-3.53-1.1 7.8 7.8 0 0 1-.7-.52c-.77.21-1.57.32-2.38.32-4.67 0-8.46-3.5-8.46-7.8C4 7.7 7.79 4.2 12.46 4.2c4.66 0 8.46 3.5 8.46 7.8 0 2.06-.85 3.99-2.4 5.45a6.28 6.28 0 0 0 1.14 2.59c.15.21.17.48.06.7a.69.69 0 0 1-.62.38h-.03zm0-1v.5l.03-.5h-.03zm-3.92-1.64l.21.2a6.09 6.09 0 0 0 3.24 1.54 7.14 7.14 0 0 1-.83-1.84 5.15 5.15 0 0 1-.16-.75 2.4 2.4 0 0 1-.02-.29v-.23l.18-.15a6.6 6.6 0 0 0 2.3-4.96c0-3.82-3.4-6.93-7.6-6.93-4.19 0-7.6 3.11-7.6 6.93 0 3.83 3.41 6.94 7.6 6.94.83 0 1.64-.12 2.41-.35l.28-.08z" fill-rule="evenodd"></path></svg>